<svg xmlns="http://www.w3.org/2000/svg" width="800" height="600" viewBox="0 0 800 600">
  <defs>
    <linearGradient id="bg4" x1="0%" y1="0%" x2="100%" y2="100%">
      <stop offset="0%" style="stop-color:#6366F1;stop-opacity:1" />
      <stop offset="100%" style="stop-color:#4F46E5;stop-opacity:1" />
    </linearGradient>
  </defs>
  <rect width="800" height="600" fill="url(#bg4)"/>
  <circle cx="680" cy="120" r="130" fill="#ffffff" opacity="0.08"/>

  <rect x="100" y="80" width="600" height="440" rx="20" fill="#ffffff" opacity="0.15"/>

  <!-- 12 Week countdown -->
  <rect x="130" y="110" width="540" height="80" rx="10" fill="#ffffff" opacity="0.95"/>
  <text x="400" y="145" font-family="Arial" font-size="16" font-weight="bold" fill="#1f2937" text-anchor="middle">Week 7 of 12</text>
  <rect x="180" y="160" width="440" height="12" rx="6" fill="#e5e7eb"/>
  <rect x="180" y="160" width="257" height="12" rx="6" fill="#6366F1"/>
  <text x="400" y="180" font-family="Arial" font-size="10" fill="#6b7280" text-anchor="middle">58% Complete • 35 Days Remaining</text>

  <!-- Execution Score -->
  <rect x="130" y="210" width="180" height="130" rx="10" fill="#ffffff" opacity="0.95"/>
  <text x="220" y="240" font-family="Arial" font-size="12" font-weight="bold" fill="#1f2937" text-anchor="middle">Execution Score</text>
  <text x="220" y="290" font-family="Arial" font-size="36" font-weight="bold" fill="#10B981" text-anchor="middle">87%</text>
  <text x="220" y="320" font-family="Arial" font-size="10" fill="#6b7280" text-anchor="middle">Target: 85%+ ✓</text>

  <!-- Goals Progress -->
  <rect x="330" y="210" width="340" height="130" rx="10" fill="#ffffff" opacity="0.95"/>
  <text x="350" y="240" font-family="Arial" font-size="12" font-weight="bold" fill="#1f2937">12-Week Goals</text>
  <rect x="350" y="260" width="200" height="8" rx="2" fill="#e5e7eb"/>
  <rect x="350" y="260" width="170" height="8" rx="2" fill="#10B981"/>
  <text x="560" y="268" font-family="Arial" font-size="10" fill="#1f2937">Goal 1: 85%</text>
  <rect x="350" y="285" width="200" height="8" rx="2" fill="#e5e7eb"/>
  <rect x="350" y="285" width="120" height="8" rx="2" fill="#F59E0B"/>
  <text x="560" y="293" font-family="Arial" font-size="10" fill="#1f2937">Goal 2: 60%</text>
  <rect x="350" y="310" width="200" height="8" rx="2" fill="#e5e7eb"/>
  <rect x="350" y="310" width="90" height="8" rx="2" fill="#6366F1"/>
  <text x="560" y="318" font-family="Arial" font-size="10" fill="#1f2937">Goal 3: 45%</text>

  <!-- Weekly Tactics -->
  <rect x="130" y="360" width="540" height="130" rx="10" fill="#ffffff" opacity="0.95"/>
  <text x="150" y="390" font-family="Arial" font-size="12" font-weight="bold" fill="#1f2937">This Week's Tactics</text>
  <text x="170" y="420" font-family="Arial" font-size="11" fill="#10B981">✓ Complete 5 sales calls</text>
  <text x="170" y="440" font-family="Arial" font-size="11" fill="#10B981">✓ Write 2 blog posts</text>
  <text x="170" y="460" font-family="Arial" font-size="11" fill="#6b7280">○ Record 1 video</text>
  <text x="400" y="420" font-family="Arial" font-size="11" fill="#10B981">✓ Gym 4x this week</text>
  <text x="400" y="440" font-family="Arial" font-size="11" fill="#6b7280">○ Review Q2 metrics</text>
  <text x="400" y="460" font-family="Arial" font-size="11" fill="#6b7280">○ Send proposals</text>

  <text x="400" y="40" font-family="Arial" font-size="24" font-weight="bold" fill="#ffffff" text-anchor="middle">12-Week Year Planner</text>
</svg>
