<svg xmlns="http://www.w3.org/2000/svg" width="800" height="600" viewBox="0 0 800 600">
  <defs>
    <linearGradient id="bg10" x1="0%" y1="0%" x2="100%" y2="100%">
      <stop offset="0%" style="stop-color:#3B82F6;stop-opacity:1" />
      <stop offset="100%" style="stop-color:#2563EB;stop-opacity:1" />
    </linearGradient>
  </defs>
  <rect width="800" height="600" fill="url(#bg10)"/>
  <circle cx="700" cy="100" r="140" fill="#ffffff" opacity="0.08"/>

  <rect x="100" y="80" width="600" height="440" rx="20" fill="#ffffff" opacity="0.15"/>

  <!-- Application Stats -->
  <rect x="130" y="110" width="130" height="90" rx="10" fill="#ffffff" opacity="0.95"/>
  <text x="195" y="140" font-family="Arial" font-size="10" fill="#6b7280" text-anchor="middle">Applied</text>
  <text x="195" y="175" font-family="Arial" font-size="28" font-weight="bold" fill="#3B82F6" text-anchor="middle">47</text>

  <rect x="275" y="110" width="130" height="90" rx="10" fill="#ffffff" opacity="0.95"/>
  <text x="340" y="140" font-family="Arial" font-size="10" fill="#6b7280" text-anchor="middle">Interviews</text>
  <text x="340" y="175" font-family="Arial" font-size="28" font-weight="bold" fill="#F59E0B" text-anchor="middle">8</text>

  <rect x="420" y="110" width="130" height="90" rx="10" fill="#ffffff" opacity="0.95"/>
  <text x="485" y="140" font-family="Arial" font-size="10" fill="#6b7280" text-anchor="middle">Response Rate</text>
  <text x="485" y="175" font-family="Arial" font-size="28" font-weight="bold" fill="#10B981" text-anchor="middle">17%</text>

  <rect x="565" y="110" width="105" height="90" rx="10" fill="#ffffff" opacity="0.95"/>
  <text x="617" y="140" font-family="Arial" font-size="10" fill="#6b7280" text-anchor="middle">Offers</text>
  <text x="617" y="175" font-family="Arial" font-size="28" font-weight="bold" fill="#10B981" text-anchor="middle">2</text>

  <!-- Application Pipeline -->
  <rect x="130" y="220" width="340" height="140" rx="10" fill="#ffffff" opacity="0.95"/>
  <text x="150" y="250" font-family="Arial" font-size="12" font-weight="bold" fill="#1f2937">Application Pipeline</text>
  <rect x="150" y="270" width="300" height="18" rx="3" fill="#e5e7eb"/>
  <text x="300" y="283" font-family="Arial" font-size="9" fill="#6b7280" text-anchor="middle">Applied: 47</text>
  <rect x="150" y="295" width="200" height="18" rx="3" fill="#3B82F6"/>
  <text x="250" y="308" font-family="Arial" font-size="9" fill="#ffffff" text-anchor="middle">Screening: 12</text>
  <rect x="150" y="320" width="100" height="18" rx="3" fill="#F59E0B"/>
  <text x="200" y="333" font-family="Arial" font-size="9" fill="#ffffff" text-anchor="middle">Interview: 8</text>
  <rect x="150" y="345" width="50" height="18" rx="3" fill="#10B981"/>
  <text x="175" y="358" font-family="Arial" font-size="9" fill="#ffffff" text-anchor="middle">Offer: 2</text>

  <!-- Upcoming -->
  <rect x="490" y="220" width="180" height="140" rx="10" fill="#ffffff" opacity="0.95"/>
  <text x="580" y="250" font-family="Arial" font-size="12" font-weight="bold" fill="#1f2937" text-anchor="middle">Upcoming</text>
  <text x="510" y="280" font-family="Arial" font-size="10" fill="#F59E0B">📅 Tomorrow</text>
  <text x="510" y="300" font-family="Arial" font-size="9" fill="#1f2937">Google - Round 2</text>
  <text x="510" y="330" font-family="Arial" font-size="10" fill="#6b7280">📅 Friday</text>
  <text x="510" y="350" font-family="Arial" font-size="9" fill="#1f2937">Amazon - Technical</text>

  <!-- Recent Activity -->
  <rect x="130" y="380" width="540" height="110" rx="10" fill="#ffffff" opacity="0.95"/>
  <text x="150" y="410" font-family="Arial" font-size="12" font-weight="bold" fill="#1f2937">Recent Activity</text>
  <text x="150" y="440" font-family="Arial" font-size="10" fill="#10B981">✓ Received offer from Stripe - $145K</text>
  <text x="150" y="460" font-family="Arial" font-size="10" fill="#3B82F6">→ Advanced to final round at Meta</text>
  <text x="150" y="480" font-family="Arial" font-size="10" fill="#6b7280">○ Applied to 3 new positions today</text>

  <text x="400" y="40" font-family="Arial" font-size="24" font-weight="bold" fill="#ffffff" text-anchor="middle">Job Hunt Command Center</text>
</svg>
